<?xml version="1.0" encoding="utf-8"?>
<!-- Generator: Adobe Illustrator 16.0.0, SVG Export Plug-In . SVG Version: 6.00 Build 0)  -->
<!DOCTYPE svg PUBLIC "-//W3C//DTD SVG 1.1//EN" "http://www.w3.org/Graphics/SVG/1.1/DTD/svg11.dtd">
<svg version="1.1" id="Layer_1" xmlns="http://www.w3.org/2000/svg" xmlns:xlink="http://www.w3.org/1999/xlink" x="0px" y="0px"
	 width="100px" height="100px" viewBox="-0.054 602.452 100 100" enable-background="new -0.054 602.452 100 100"
	 xml:space="preserve">
<g>
	<path d="M4.716,697.765c2.655,2.576,6.091,3.904,9.528,3.904c3.436,0,6.872-1.25,9.527-3.904c2.577-2.576,3.982-5.935,3.982-9.526
		c0-2.89-0.937-5.701-2.655-8.044l13.198-13.198l8.043,8.043c0.313,0.392,0.859,0.548,1.328,0.548c0.468,0,0.937-0.156,1.328-0.548
		c0.781-0.779,0.781-1.951,0-2.731l-17.961-17.962c-0.781-0.781-1.953-0.781-2.733,0c-0.782,0.78-0.782,1.952,0,2.733l7.184,7.185
		l-14.446,14.524c-0.782,0.781-0.782,1.953,0,2.732c1.796,1.798,2.811,4.219,2.811,6.795s-1.015,4.998-2.811,6.794
		c-3.827,3.748-9.918,3.748-13.667,0c-3.749-3.826-3.749-9.917,0-13.666c0.781-0.78,0.781-1.953,0-2.732
		c-0.781-0.782-1.953-0.782-2.733,0C-0.594,683.942-0.594,692.455,4.716,697.765z"/>
	<path d="M82.496,619.595c4.607,4.607,10.62,6.092,13.353,3.358c2.421-2.499,1.484-7.496-1.952-11.791
		c0.156-0.079,0.234-0.157,0.391-0.313l4.295-4.297c0.781-0.78,0.781-1.951,0-2.732s-1.953-0.781-2.733,0l-4.295,4.295
		c-0.156,0.156-0.234,0.234-0.312,0.392c-4.452-3.827-9.684-4.843-12.183-2.344C76.326,608.974,77.81,614.909,82.496,619.595z"/>
	<path d="M70.157,613.973l17.961,17.962c0.313,0.389,0.859,0.546,1.328,0.546c0.468,0,0.937-0.157,1.327-0.546
		c0.781-0.782,0.781-1.953,0-2.734l-17.961-17.962c-0.781-0.78-1.953-0.78-2.733,0C69.298,612.021,69.298,613.27,70.157,613.973z"/>
	<ellipse transform="matrix(0.7071 0.7071 -0.7071 0.7071 465.9569 132.1075)" cx="73.514" cy="628.502" rx="11.87" ry="7.029"/>
	<path d="M56.178,628.419l17.961,17.962c0.313,0.39,0.859,0.546,1.328,0.546c0.469,0,0.937-0.156,1.328-0.546
		c0.781-0.782,0.781-1.953,0-2.734l-17.961-17.96c-0.781-0.781-1.952-0.781-2.733,0C55.398,626.467,55.398,627.639,56.178,628.419z"
		/>
	<ellipse transform="matrix(0.7071 0.7071 -0.7071 0.7071 471.7415 146.008)" cx="59.627" cy="642.435" rx="11.87" ry="7.029"/>
	<path d="M42.356,641.852l17.961,17.96c0.313,0.391,0.859,0.548,1.328,0.548c0.467,0,0.937-0.157,1.327-0.548
		c0.781-0.78,0.781-1.952,0-2.732l-17.961-17.962c-0.781-0.779-1.953-0.779-2.733,0C41.576,639.821,41.576,641.07,42.356,641.852z"
		/>
	<ellipse transform="matrix(0.7071 0.7071 -0.7071 0.7071 477.486 159.9802)" cx="45.63" cy="656.367" rx="11.87" ry="7.029"/>
</g>
</svg>
